<svg width="20" height="20" viewBox="0 0 20 20" fill="none" xmlns="http://www.w3.org/2000/svg">
<g clip-path="url(#clip0_847_811)">
<path d="M6.02952 8.40417L9.91355 4.5203L13.7996 8.40622L16.0596 6.14623L9.91355 0L3.76953 6.14417L6.02952 8.40417Z" fill="#26262C"/>
<path d="M4.43378 9.99964L2.17383 7.73969L-0.0862376 9.99975L2.17372 12.2597L4.43378 9.99964Z" fill="#26262C"/>
<path d="M6.02942 11.5958L9.91345 15.4797L13.7994 11.5939L16.0606 13.8527L16.0595 13.8539L9.91345 20L3.76927 13.856L3.76611 13.8528L6.02942 11.5958Z" fill="#26262C"/>
<path d="M17.654 12.2608L19.9141 10.0007L17.6541 7.74078L15.394 10.0008L17.654 12.2608Z" fill="#26262C"/>
<path d="M12.2059 9.99883H12.2069L9.91357 7.70551L8.21877 9.4003H8.21861L8.024 9.59507L7.6223 9.99678L7.61914 9.99994L7.6223 10.0033L9.91357 12.2945L12.2069 10.0012L12.208 9.99994L12.2059 9.99883Z" fill="#26262C"/>
</g>
<defs>
<clipPath id="clip0_847_811">
<rect width="20" height="20" fill="white"/>
</clipPath>
</defs>
</svg>
