<svg width="22" height="26" viewBox="0 0 22 26" fill="none" xmlns="http://www.w3.org/2000/svg">
<g filter="url(#filter0_ii_888_1086)">
<rect width="18" height="18" transform="translate(1 3)" fill="#F3BA2F"/>
<g filter="url(#filter1_d_888_1086)">
<path d="M10.2236 12.6558H7.13574L7.11914 11.0454H9.76709C10.2209 11.0454 10.5999 10.9818 10.9043 10.8545C11.2087 10.7272 11.4383 10.5418 11.5933 10.2983C11.7537 10.0549 11.834 9.75879 11.834 9.41016C11.834 9.02279 11.7593 8.70736 11.6099 8.46387C11.466 8.22038 11.2391 8.04329 10.9292 7.93262C10.6193 7.81641 10.2264 7.7583 9.75049 7.7583H7.87451V18.043H5.5918V5.95703H9.75049C10.4367 5.95703 11.0482 6.02344 11.585 6.15625C12.1273 6.28353 12.5866 6.48275 12.9629 6.75391C13.3392 7.02507 13.6242 7.3654 13.8179 7.7749C14.0171 8.18441 14.1167 8.67139 14.1167 9.23584C14.1167 9.73389 14.0005 10.1932 13.7681 10.6138C13.5412 11.0288 13.1898 11.3664 12.7139 11.6265C12.2435 11.8866 11.6458 12.036 10.9209 12.0747L10.2236 12.6558ZM10.124 18.043H6.46338L7.41797 16.25H10.124C10.5778 16.25 10.9513 16.1753 11.2446 16.0259C11.5435 15.8765 11.7648 15.6717 11.9087 15.4116C12.0581 15.146 12.1328 14.8416 12.1328 14.4985C12.1328 14.1222 12.0664 13.7957 11.9336 13.519C11.8063 13.2424 11.6016 13.0293 11.3193 12.8799C11.0426 12.7305 10.6774 12.6558 10.2236 12.6558H7.84961L7.86621 11.0454H10.8877L11.4106 11.668C12.1079 11.6735 12.6751 11.8118 13.1123 12.083C13.555 12.3542 13.8815 12.7028 14.0918 13.1289C14.3021 13.555 14.4072 14.0143 14.4072 14.5068C14.4072 15.2816 14.2384 15.9318 13.9009 16.4575C13.5688 16.9832 13.0819 17.3789 12.4399 17.6445C11.8035 17.9102 11.0316 18.043 10.124 18.043Z" fill="white"/>
</g>
</g>
<defs>
<filter id="filter0_ii_888_1086" x="0" y="2" width="20" height="20" filterUnits="userSpaceOnUse" color-interpolation-filters="sRGB">
<feFlood flood-opacity="0" result="BackgroundImageFix"/>
<feBlend mode="normal" in="SourceGraphic" in2="BackgroundImageFix" result="shape"/>
<feColorMatrix in="SourceAlpha" type="matrix" values="0 0 0 0 0 0 0 0 0 0 0 0 0 0 0 0 0 0 127 0" result="hardAlpha"/>
<feOffset dx="1" dy="1"/>
<feGaussianBlur stdDeviation="2"/>
<feComposite in2="hardAlpha" operator="arithmetic" k2="-1" k3="1"/>
<feColorMatrix type="matrix" values="0 0 0 0 0 0 0 0 0 0 0 0 0 0 0 0 0 0 0.25 0"/>
<feBlend mode="normal" in2="shape" result="effect1_innerShadow_888_1086"/>
<feColorMatrix in="SourceAlpha" type="matrix" values="0 0 0 0 0 0 0 0 0 0 0 0 0 0 0 0 0 0 127 0" result="hardAlpha"/>
<feOffset dx="-1" dy="-1"/>
<feGaussianBlur stdDeviation="2"/>
<feComposite in2="hardAlpha" operator="arithmetic" k2="-1" k3="1"/>
<feColorMatrix type="matrix" values="0 0 0 0 1 0 0 0 0 1 0 0 0 0 1 0 0 0 0.25 0"/>
<feBlend mode="normal" in2="effect1_innerShadow_888_1086" result="effect2_innerShadow_888_1086"/>
</filter>
<filter id="filter1_d_888_1086" x="0.591797" y="0.957031" width="20.8154" height="24.0859" filterUnits="userSpaceOnUse" color-interpolation-filters="sRGB">
<feFlood flood-opacity="0" result="BackgroundImageFix"/>
<feColorMatrix in="SourceAlpha" type="matrix" values="0 0 0 0 0 0 0 0 0 0 0 0 0 0 0 0 0 0 127 0" result="hardAlpha"/>
<feOffset dx="1" dy="1"/>
<feGaussianBlur stdDeviation="3"/>
<feComposite in2="hardAlpha" operator="out"/>
<feColorMatrix type="matrix" values="0 0 0 0 0 0 0 0 0 0 0 0 0 0 0 0 0 0 0.3 0"/>
<feBlend mode="normal" in2="BackgroundImageFix" result="effect1_dropShadow_888_1086"/>
<feBlend mode="normal" in="SourceGraphic" in2="effect1_dropShadow_888_1086" result="shape"/>
</filter>
</defs>
</svg>
