<svg width="100" height="100" viewBox="0 0 100 100" fill="none" xmlns="http://www.w3.org/2000/svg">
<g filter="url(#filter0_ii_917_777)">
<rect width="100" height="100" fill="url(#paint0_linear_917_777)"/>
<g filter="url(#filter1_i_917_777)">
<path d="M51.322 53.5268H33.1073L33.0094 44.8661H48.629C51.3057 44.8661 53.5417 44.5238 55.3371 43.8393C57.1325 43.1548 58.4871 42.1577 59.4011 40.8482C60.3478 39.5387 60.8211 37.9464 60.8211 36.0714C60.8211 33.9881 60.3804 32.2917 59.4991 30.9821C58.6503 29.6726 57.312 28.7202 55.484 28.125C53.656 27.5 51.3384 27.1875 48.5311 27.1875H37.4652V82.5H24V17.5H48.5311C52.5788 17.5 56.1858 17.8571 59.3522 18.5714C62.5512 19.256 65.2605 20.3274 67.4802 21.7857C69.6999 23.244 71.381 25.0744 72.5235 27.2768C73.6987 29.4792 74.2863 32.0982 74.2863 35.1339C74.2863 37.8125 73.6008 40.2827 72.2298 42.5446C70.8914 44.7768 68.8186 46.5923 66.0113 47.9911C63.2367 49.3899 59.7112 50.1935 55.435 50.4018L51.322 53.5268ZM50.7345 82.5H29.1412L34.7721 72.8571H50.7345C53.4112 72.8571 55.6146 72.4554 57.3446 71.6518C59.1073 70.8482 60.4131 69.747 61.2618 68.3482C62.1431 66.9196 62.5838 65.2827 62.5838 63.4375C62.5838 61.4137 62.1921 59.6577 61.4087 58.1696C60.6579 56.6815 59.4501 55.5357 57.7853 54.7321C56.1532 53.9286 53.9987 53.5268 51.322 53.5268H37.3183L37.4162 44.8661H55.2392L58.3239 48.2143C62.4369 48.244 65.7828 48.9881 68.3616 50.4464C70.973 51.9048 72.8989 53.7798 74.1394 56.0714C75.3798 58.3631 76 60.8333 76 63.4821C76 67.6488 75.0044 71.1458 73.0132 73.9732C71.0546 76.8006 68.182 78.9286 64.3955 80.3571C60.6416 81.7857 56.0879 82.5 50.7345 82.5Z" fill="white"/>
</g>
</g>
<defs>
<filter id="filter0_ii_917_777" x="-5" y="-5" width="110" height="110" filterUnits="userSpaceOnUse" color-interpolation-filters="sRGB">
<feFlood flood-opacity="0" result="BackgroundImageFix"/>
<feBlend mode="normal" in="SourceGraphic" in2="BackgroundImageFix" result="shape"/>
<feColorMatrix in="SourceAlpha" type="matrix" values="0 0 0 0 0 0 0 0 0 0 0 0 0 0 0 0 0 0 127 0" result="hardAlpha"/>
<feOffset dx="-5" dy="-5"/>
<feGaussianBlur stdDeviation="10"/>
<feComposite in2="hardAlpha" operator="arithmetic" k2="-1" k3="1"/>
<feColorMatrix type="matrix" values="0 0 0 0 0 0 0 0 0 0 0 0 0 0 0 0 0 0 0.1 0"/>
<feBlend mode="normal" in2="shape" result="effect1_innerShadow_917_777"/>
<feColorMatrix in="SourceAlpha" type="matrix" values="0 0 0 0 0 0 0 0 0 0 0 0 0 0 0 0 0 0 127 0" result="hardAlpha"/>
<feOffset dx="5" dy="5"/>
<feGaussianBlur stdDeviation="7.5"/>
<feComposite in2="hardAlpha" operator="arithmetic" k2="-1" k3="1"/>
<feColorMatrix type="matrix" values="0 0 0 0 1 0 0 0 0 1 0 0 0 0 1 0 0 0 0.1 0"/>
<feBlend mode="normal" in2="effect1_innerShadow_917_777" result="effect2_innerShadow_917_777"/>
</filter>
<filter id="filter1_i_917_777" x="24" y="17.5" width="54" height="67" filterUnits="userSpaceOnUse" color-interpolation-filters="sRGB">
<feFlood flood-opacity="0" result="BackgroundImageFix"/>
<feBlend mode="normal" in="SourceGraphic" in2="BackgroundImageFix" result="shape"/>
<feColorMatrix in="SourceAlpha" type="matrix" values="0 0 0 0 0 0 0 0 0 0 0 0 0 0 0 0 0 0 127 0" result="hardAlpha"/>
<feOffset dx="2" dy="2"/>
<feGaussianBlur stdDeviation="1.5"/>
<feComposite in2="hardAlpha" operator="arithmetic" k2="-1" k3="1"/>
<feColorMatrix type="matrix" values="0 0 0 0 0.823529 0 0 0 0 0.584314 0 0 0 0 0 0 0 0 0.5 0"/>
<feBlend mode="normal" in2="shape" result="effect1_innerShadow_917_777"/>
</filter>
<linearGradient id="paint0_linear_917_777" x1="0" y1="0" x2="100" y2="100" gradientUnits="userSpaceOnUse">
<stop stop-color="#F3BA2F"/>
<stop offset="1" stop-color="#D29500"/>
</linearGradient>
</defs>
</svg>
