<svg width="22" height="24" viewBox="0 0 22 24" fill="none" xmlns="http://www.w3.org/2000/svg">
<g filter="url(#filter0_ii_888_1081)">
<rect width="18" height="18" transform="translate(1 2)" fill="#093687"/>
<g filter="url(#filter1_d_888_1081)">
<path d="M12.0887 5.5H14.5V12.6694C14.5 13.5041 14.3065 14.2071 13.9194 14.7785C13.5376 15.3498 13.0081 15.7796 12.3306 16.0678C11.6586 16.3559 10.8844 16.5 10.0081 16.5C9.13172 16.5 8.35215 16.3559 7.66935 16.0678C6.99194 15.7796 6.45968 15.3498 6.07258 14.7785C5.69086 14.2071 5.5 13.5041 5.5 12.6694V5.5H7.91935V12.6694C7.91935 13.1563 8.00269 13.5537 8.16935 13.8618C8.33602 14.1698 8.57527 14.3959 8.8871 14.54C9.2043 14.6841 9.57796 14.7561 10.0081 14.7561C10.4489 14.7561 10.8226 14.6841 11.129 14.54C11.4409 14.3959 11.6774 14.1698 11.8387 13.8618C12.0054 13.5537 12.0887 13.1563 12.0887 12.6694V5.5Z" fill="white"/>
</g>
</g>
<defs>
<filter id="filter0_ii_888_1081" x="0" y="1" width="20" height="20" filterUnits="userSpaceOnUse" color-interpolation-filters="sRGB">
<feFlood flood-opacity="0" result="BackgroundImageFix"/>
<feBlend mode="normal" in="SourceGraphic" in2="BackgroundImageFix" result="shape"/>
<feColorMatrix in="SourceAlpha" type="matrix" values="0 0 0 0 0 0 0 0 0 0 0 0 0 0 0 0 0 0 127 0" result="hardAlpha"/>
<feOffset dx="1" dy="1"/>
<feGaussianBlur stdDeviation="2"/>
<feComposite in2="hardAlpha" operator="arithmetic" k2="-1" k3="1"/>
<feColorMatrix type="matrix" values="0 0 0 0 0 0 0 0 0 0 0 0 0 0 0 0 0 0 0.25 0"/>
<feBlend mode="normal" in2="shape" result="effect1_innerShadow_888_1081"/>
<feColorMatrix in="SourceAlpha" type="matrix" values="0 0 0 0 0 0 0 0 0 0 0 0 0 0 0 0 0 0 127 0" result="hardAlpha"/>
<feOffset dx="-1" dy="-1"/>
<feGaussianBlur stdDeviation="2"/>
<feComposite in2="hardAlpha" operator="arithmetic" k2="-1" k3="1"/>
<feColorMatrix type="matrix" values="0 0 0 0 1 0 0 0 0 1 0 0 0 0 1 0 0 0 0.25 0"/>
<feBlend mode="normal" in2="effect1_innerShadow_888_1081" result="effect2_innerShadow_888_1081"/>
</filter>
<filter id="filter1_d_888_1081" x="0.5" y="0.5" width="21" height="23" filterUnits="userSpaceOnUse" color-interpolation-filters="sRGB">
<feFlood flood-opacity="0" result="BackgroundImageFix"/>
<feColorMatrix in="SourceAlpha" type="matrix" values="0 0 0 0 0 0 0 0 0 0 0 0 0 0 0 0 0 0 127 0" result="hardAlpha"/>
<feOffset dx="1" dy="1"/>
<feGaussianBlur stdDeviation="3"/>
<feComposite in2="hardAlpha" operator="out"/>
<feColorMatrix type="matrix" values="0 0 0 0 0 0 0 0 0 0 0 0 0 0 0 0 0 0 0.5 0"/>
<feBlend mode="normal" in2="BackgroundImageFix" result="effect1_dropShadow_888_1081"/>
<feBlend mode="normal" in="SourceGraphic" in2="effect1_dropShadow_888_1081" result="shape"/>
</filter>
</defs>
</svg>
