<svg width="20" height="20" viewBox="0 0 20 20" fill="none" xmlns="http://www.w3.org/2000/svg">
<path d="M10 0C15.5228 0 20 4.47715 20 10C20 15.5228 15.5228 20 10 20C4.47715 20 0 15.5228 0 10C0 4.47715 4.47715 0 10 0ZM3.87402 6.41602L2.1709 11.5996C2.1709 11.5996 2.13512 11.7139 2.12793 11.7402C2.04255 12.0436 2.0148 12.3549 2.08301 12.665C2.09651 12.7265 2.11387 12.7877 2.13574 12.8467C2.17807 12.9627 2.23856 13.0716 2.31445 13.1689C2.44025 13.3289 2.60672 13.4245 2.79395 13.4951C2.88797 13.531 2.98602 13.5554 3.08594 13.5674C3.14567 13.5762 3.20626 13.5819 3.2666 13.584H7.99316L9.77832 8.16504L8.72656 8.44531L10.6738 6.41602H8.01758L6.05664 12.3857H4.89551C4.81994 12.3877 4.74504 12.3693 4.67871 12.333C4.47256 12.2247 4.39921 11.9693 4.49316 11.6816L6.22266 6.41602H3.87402ZM11.4189 6.41504L12.0322 8.44336L11.1738 8.16406L9.38965 13.584L11.7188 13.583L12.4756 11.2783H15.1416C15.8265 11.2742 16.5954 10.8284 17.1006 10.1416C17.2603 9.92574 17.3887 9.68756 17.4814 9.43555L17.4961 9.39844C17.5013 9.38448 17.5064 9.37156 17.5107 9.3584L17.8467 8.33398C18.1927 7.27575 17.6917 6.41516 16.7285 6.41504H11.4189ZM15.0938 7.61426C15.4468 7.61426 15.6307 7.9303 15.5029 8.31934L15.1562 9.37695C15.0291 9.76547 14.637 10.0811 14.2832 10.0811H12.8691L13.6787 7.61426H15.0938Z" fill="#26262C"/>
</svg>
