<svg width="100" height="100" viewBox="0 0 100 100" fill="none" xmlns="http://www.w3.org/2000/svg">
<g filter="url(#filter0_ii_917_776)">
<rect width="100" height="100" fill="url(#paint0_linear_917_776)"/>
<g filter="url(#filter1_i_917_776)">
<path d="M76 56.5272C76 60.1232 75.32 63.5077 73.9599 66.6806C72.5998 69.8233 70.7411 72.5732 68.3836 74.9303C66.0262 77.2571 63.2607 79.1004 60.0872 80.4602C56.9439 81.8201 53.574 82.5 49.9773 82.5C46.3807 82.5 42.9956 81.8201 39.8221 80.4602C36.6789 79.1004 33.9285 77.2571 31.5711 74.9303C29.2438 72.5732 27.4002 69.8233 26.0401 66.6806C24.68 63.5077 24 60.1232 24 56.5272V17.5H36.966V56.5272C36.966 58.3101 37.2985 59.9872 37.9634 61.5586C38.6585 63.1299 39.5955 64.5049 40.7742 65.6834C41.9529 66.8619 43.3281 67.7987 44.8997 68.4937C46.5016 69.1585 48.1941 69.4909 49.9773 69.4909C51.7605 69.4909 53.438 69.1585 55.0096 68.4937C56.6114 67.7987 58.0017 66.8619 59.1805 65.6834C60.3592 64.5049 61.281 63.1299 61.9459 61.5586C62.6411 59.9872 62.9887 58.3101 62.9887 56.5272V17.5H76V56.5272Z" fill="white"/>
</g>
</g>
<defs>
<filter id="filter0_ii_917_776" x="-5" y="-5" width="110" height="110" filterUnits="userSpaceOnUse" color-interpolation-filters="sRGB">
<feFlood flood-opacity="0" result="BackgroundImageFix"/>
<feBlend mode="normal" in="SourceGraphic" in2="BackgroundImageFix" result="shape"/>
<feColorMatrix in="SourceAlpha" type="matrix" values="0 0 0 0 0 0 0 0 0 0 0 0 0 0 0 0 0 0 127 0" result="hardAlpha"/>
<feOffset dx="-5" dy="-5"/>
<feGaussianBlur stdDeviation="10"/>
<feComposite in2="hardAlpha" operator="arithmetic" k2="-1" k3="1"/>
<feColorMatrix type="matrix" values="0 0 0 0 0 0 0 0 0 0 0 0 0 0 0 0 0 0 0.35 0"/>
<feBlend mode="normal" in2="shape" result="effect1_innerShadow_917_776"/>
<feColorMatrix in="SourceAlpha" type="matrix" values="0 0 0 0 0 0 0 0 0 0 0 0 0 0 0 0 0 0 127 0" result="hardAlpha"/>
<feOffset dx="5" dy="5"/>
<feGaussianBlur stdDeviation="5"/>
<feComposite in2="hardAlpha" operator="arithmetic" k2="-1" k3="1"/>
<feColorMatrix type="matrix" values="0 0 0 0 1 0 0 0 0 1 0 0 0 0 1 0 0 0 0.1 0"/>
<feBlend mode="normal" in2="effect1_innerShadow_917_776" result="effect2_innerShadow_917_776"/>
</filter>
<filter id="filter1_i_917_776" x="24" y="17.5" width="54" height="67" filterUnits="userSpaceOnUse" color-interpolation-filters="sRGB">
<feFlood flood-opacity="0" result="BackgroundImageFix"/>
<feBlend mode="normal" in="SourceGraphic" in2="BackgroundImageFix" result="shape"/>
<feColorMatrix in="SourceAlpha" type="matrix" values="0 0 0 0 0 0 0 0 0 0 0 0 0 0 0 0 0 0 127 0" result="hardAlpha"/>
<feOffset dx="2" dy="2"/>
<feGaussianBlur stdDeviation="1.5"/>
<feComposite in2="hardAlpha" operator="arithmetic" k2="-1" k3="1"/>
<feColorMatrix type="matrix" values="0 0 0 0 0.027451 0 0 0 0 0.152941 0 0 0 0 0.380392 0 0 0 0.5 0"/>
<feBlend mode="normal" in2="shape" result="effect1_innerShadow_917_776"/>
</filter>
<linearGradient id="paint0_linear_917_776" x1="0" y1="0" x2="100" y2="100" gradientUnits="userSpaceOnUse">
<stop stop-color="#093687"/>
<stop offset="1" stop-color="#072761"/>
</linearGradient>
</defs>
</svg>
