<svg width="173" height="16" viewBox="0 0 173 16" fill="none" xmlns="http://www.w3.org/2000/svg">
<path d="M166.156 13.776V11.84H172.028V13.776H166.156Z" fill="#E9E9E9"/>
<path d="M158.047 13.472C158.239 13.5147 158.415 13.552 158.575 13.584C158.746 13.616 158.89 13.632 159.007 13.632C159.21 13.632 159.375 13.5787 159.503 13.472C159.642 13.376 159.775 13.1947 159.903 12.928C160.031 12.672 160.165 12.3093 160.303 11.84L156.991 3.456H159.215L161.471 9.648L163.455 3.456H165.503L161.983 13.504C161.855 13.8773 161.658 14.2133 161.391 14.512C161.135 14.8213 160.81 15.0613 160.415 15.232C160.031 15.4133 159.599 15.504 159.119 15.504C158.949 15.504 158.778 15.488 158.607 15.456C158.437 15.4347 158.25 15.392 158.047 15.328V13.472Z" fill="#E9E9E9"/>
<path d="M153.584 0.160004H155.728V9.152C155.728 9.536 155.792 9.79734 155.92 9.936C156.048 10.064 156.224 10.128 156.448 10.128C156.619 10.128 156.795 10.1067 156.976 10.064C157.157 10.0213 157.317 9.968 157.456 9.904L157.744 11.536C157.456 11.6747 157.12 11.7813 156.736 11.856C156.352 11.9307 156.005 11.968 155.696 11.968C155.024 11.968 154.501 11.792 154.128 11.44C153.765 11.0773 153.584 10.5653 153.584 9.904V0.160004Z" fill="#E9E9E9"/>
<path d="M149.393 12C148.113 12 147.148 11.7653 146.497 11.296C145.847 10.8267 145.521 10.2027 145.521 9.424C145.521 8.99733 145.601 8.64533 145.761 8.368C145.921 8.08 146.145 7.856 146.433 7.696C146.721 7.52533 147.063 7.40267 147.457 7.328V7.248C146.945 7.12 146.561 6.896 146.305 6.576C146.06 6.256 145.937 5.86133 145.937 5.392C145.937 4.90133 146.06 4.47467 146.305 4.112C146.561 3.73867 146.945 3.45067 147.457 3.248C147.969 3.04533 148.615 2.944 149.393 2.944C149.948 2.944 150.508 3.00267 151.073 3.12C151.639 3.22667 152.124 3.40267 152.529 3.648L151.873 5.328C151.436 5.09333 151.036 4.93333 150.673 4.848C150.321 4.752 149.953 4.704 149.569 4.704C149.089 4.704 148.737 4.78933 148.513 4.96C148.289 5.12 148.177 5.35467 148.177 5.664C148.177 5.97333 148.289 6.19733 148.513 6.336C148.748 6.464 149.095 6.528 149.553 6.528H150.849V8.24H149.569C149.175 8.24 148.86 8.27733 148.625 8.352C148.391 8.416 148.22 8.52267 148.113 8.672C148.007 8.81067 147.953 8.992 147.953 9.216C147.953 9.568 148.097 9.824 148.385 9.984C148.684 10.144 149.116 10.224 149.681 10.224C150.172 10.224 150.609 10.1707 150.993 10.064C151.388 9.94667 151.809 9.74933 152.257 9.472V11.344C151.873 11.568 151.463 11.7333 151.025 11.84C150.588 11.9467 150.044 12 149.393 12Z" fill="#E9E9E9"/>
<path d="M144.473 11.84H142.329V7.136C142.329 6.464 142.211 5.97334 141.977 5.664C141.742 5.35467 141.417 5.2 141.001 5.2C140.713 5.2 140.419 5.27467 140.121 5.424C139.833 5.57334 139.571 5.78134 139.337 6.048C139.102 6.304 138.931 6.60267 138.825 6.944V11.84H136.681V3.456H138.617V5.008C138.83 4.64534 139.102 4.34134 139.433 4.096C139.763 3.84 140.142 3.648 140.569 3.52C141.006 3.38134 141.465 3.312 141.945 3.312C142.467 3.312 142.894 3.408 143.225 3.6C143.566 3.78134 143.822 4.032 143.993 4.352C144.174 4.66134 144.297 5.01334 144.361 5.408C144.435 5.80267 144.473 6.20267 144.473 6.608V11.84Z" fill="#E9E9E9"/>
<path d="M131.25 12C130.567 12 129.954 11.888 129.41 11.664C128.866 11.4293 128.402 11.1093 128.018 10.704C127.644 10.2987 127.356 9.83467 127.154 9.312C126.951 8.78934 126.85 8.24 126.85 7.664C126.85 7.07734 126.951 6.52267 127.154 6C127.356 5.47734 127.644 5.01334 128.018 4.608C128.402 4.20267 128.866 3.888 129.41 3.664C129.954 3.42934 130.567 3.312 131.25 3.312C131.932 3.312 132.54 3.42934 133.074 3.664C133.618 3.888 134.082 4.20267 134.466 4.608C134.85 5.01334 135.138 5.47734 135.33 6C135.532 6.52267 135.634 7.07734 135.634 7.664C135.634 8.24 135.532 8.78934 135.33 9.312C135.138 9.83467 134.85 10.2987 134.466 10.704C134.092 11.1093 133.634 11.4293 133.09 11.664C132.546 11.888 131.932 12 131.25 12ZM129.058 7.664C129.058 8.15467 129.154 8.592 129.346 8.976C129.538 9.34934 129.799 9.64267 130.13 9.856C130.46 10.0693 130.834 10.176 131.25 10.176C131.655 10.176 132.023 10.0693 132.354 9.856C132.684 9.632 132.946 9.33334 133.138 8.96C133.34 8.576 133.442 8.13867 133.442 7.648C133.442 7.168 133.34 6.736 133.138 6.352C132.946 5.968 132.684 5.66934 132.354 5.456C132.023 5.24267 131.655 5.136 131.25 5.136C130.834 5.136 130.46 5.248 130.13 5.472C129.799 5.68534 129.538 5.984 129.346 6.368C129.154 6.74134 129.058 7.17334 129.058 7.664Z" fill="#E9E9E9"/>
<path d="M122.684 0.160004H124.828V9.152C124.828 9.536 124.892 9.79734 125.02 9.936C125.148 10.064 125.324 10.128 125.548 10.128C125.718 10.128 125.894 10.1067 126.076 10.064C126.257 10.0213 126.417 9.968 126.556 9.904L126.844 11.536C126.556 11.6747 126.22 11.7813 125.836 11.856C125.452 11.9307 125.105 11.968 124.796 11.968C124.124 11.968 123.601 11.792 123.228 11.44C122.865 11.0773 122.684 10.5653 122.684 9.904V0.160004Z" fill="#E9E9E9"/>
<path d="M119.021 11.84V3.456H121.165V11.84H119.021ZM119.021 2.288V0.160004H121.165V2.288H119.021Z" fill="#E9E9E9"/>
<path d="M114.603 12C113.888 12 113.206 11.8827 112.555 11.648C111.904 11.4133 111.344 11.0667 110.875 10.608L111.643 9.216C112.144 9.62134 112.635 9.92001 113.115 10.112C113.606 10.304 114.075 10.4 114.523 10.4C114.939 10.4 115.27 10.3253 115.515 10.176C115.771 10.0267 115.899 9.80267 115.899 9.504C115.899 9.30134 115.83 9.14667 115.691 9.04C115.552 8.92267 115.35 8.82134 115.083 8.73601C114.827 8.65067 114.512 8.55467 114.139 8.44801C113.52 8.24534 113.003 8.04801 112.587 7.85601C112.171 7.66401 111.856 7.424 111.643 7.136C111.44 6.83734 111.339 6.45867 111.339 6.00001C111.339 5.44534 111.478 4.97067 111.755 4.57601C112.043 4.17067 112.438 3.85601 112.939 3.63201C113.451 3.40801 114.048 3.29601 114.731 3.29601C115.328 3.29601 115.894 3.39201 116.427 3.58401C116.96 3.76534 117.446 4.06401 117.883 4.48001L117.019 5.84001C116.592 5.50934 116.187 5.26934 115.803 5.12001C115.419 4.96001 115.03 4.88 114.635 4.88C114.411 4.88 114.198 4.90667 113.995 4.96001C113.803 5.01334 113.643 5.10401 113.515 5.23201C113.398 5.34934 113.339 5.52 113.339 5.744C113.339 5.94667 113.392 6.10667 113.499 6.22401C113.616 6.33067 113.787 6.42667 114.011 6.51201C114.246 6.59734 114.528 6.69334 114.859 6.8C115.531 6.992 116.096 7.18934 116.555 7.39201C117.024 7.59467 117.376 7.84534 117.611 8.14401C117.846 8.43201 117.963 8.832 117.963 9.344C117.963 10.176 117.659 10.8267 117.051 11.296C116.443 11.7653 115.627 12 114.603 12Z" fill="#E9E9E9"/>
<path d="M106.798 12C106.148 12 105.572 11.856 105.07 11.568C104.58 11.2693 104.196 10.8693 103.918 10.368V15.248H101.774V3.456H103.646V4.896C103.966 4.40534 104.372 4.02134 104.862 3.744C105.353 3.456 105.913 3.312 106.542 3.312C107.108 3.312 107.625 3.424 108.094 3.648C108.574 3.872 108.99 4.18667 109.342 4.592C109.694 4.98667 109.966 5.44534 110.158 5.96801C110.361 6.48001 110.462 7.03467 110.462 7.632C110.462 8.44267 110.302 9.17867 109.982 9.84C109.673 10.5013 109.241 11.0293 108.686 11.424C108.142 11.808 107.513 12 106.798 12ZM106.078 10.176C106.409 10.176 106.708 10.1067 106.974 9.968C107.241 9.82934 107.47 9.64267 107.662 9.408C107.865 9.16267 108.014 8.89067 108.11 8.592C108.217 8.28267 108.27 7.96267 108.27 7.632C108.27 7.28 108.212 6.95467 108.094 6.656C107.988 6.35734 107.828 6.096 107.614 5.872C107.401 5.63734 107.15 5.456 106.862 5.328C106.585 5.2 106.281 5.136 105.95 5.136C105.748 5.136 105.54 5.17334 105.326 5.248C105.124 5.312 104.926 5.408 104.734 5.536C104.542 5.664 104.372 5.81334 104.222 5.984C104.084 6.15467 103.982 6.34134 103.918 6.544V8.512C104.046 8.82134 104.217 9.104 104.43 9.36001C104.654 9.616 104.91 9.81867 105.198 9.968C105.486 10.1067 105.78 10.176 106.078 10.176Z" fill="#E9E9E9"/>
<path d="M97.5683 12C96.2883 12 95.323 11.7653 94.6723 11.296C94.0216 10.8267 93.6963 10.2027 93.6963 9.424C93.6963 8.99733 93.7763 8.64533 93.9363 8.368C94.0963 8.08 94.3203 7.856 94.6083 7.696C94.8963 7.52533 95.2376 7.40267 95.6323 7.328V7.248C95.1203 7.12 94.7363 6.896 94.4803 6.576C94.235 6.256 94.1123 5.86133 94.1123 5.392C94.1123 4.90133 94.235 4.47467 94.4803 4.112C94.7363 3.73867 95.1203 3.45067 95.6323 3.248C96.1443 3.04533 96.7896 2.944 97.5683 2.944C98.123 2.944 98.683 3.00267 99.2483 3.12C99.8136 3.22667 100.299 3.40267 100.704 3.648L100.048 5.328C99.611 5.09333 99.211 4.93333 98.8483 4.848C98.4963 4.752 98.1283 4.704 97.7443 4.704C97.2643 4.704 96.9123 4.78933 96.6883 4.96C96.4643 5.12 96.3523 5.35467 96.3523 5.664C96.3523 5.97333 96.4643 6.19733 96.6883 6.336C96.923 6.464 97.2696 6.528 97.7283 6.528H99.0243V8.24H97.7443C97.3496 8.24 97.035 8.27733 96.8003 8.352C96.5656 8.416 96.395 8.52267 96.2883 8.672C96.1816 8.81067 96.1283 8.992 96.1283 9.216C96.1283 9.568 96.2723 9.824 96.5603 9.984C96.859 10.144 97.291 10.224 97.8563 10.224C98.347 10.224 98.7843 10.1707 99.1683 10.064C99.563 9.94667 99.9843 9.74933 100.432 9.472V11.344C100.048 11.568 99.6376 11.7333 99.2003 11.84C98.763 11.9467 98.219 12 97.5683 12Z" fill="#E9E9E9"/>
<path d="M83.8972 3.152L78.8412 15.92H78.1052L79.7212 11.84L76.0732 3.152H76.8572L80.1212 11.04L83.1612 3.152H83.8972Z" fill="#E9E9E9"/>
<path d="M67.468 5.44C67.7347 4.736 68.188 4.16 68.828 3.712C69.468 3.264 70.2414 3.04 71.148 3.04C71.9587 3.04 72.6787 3.22133 73.3081 3.584C73.9481 3.94667 74.4441 4.464 74.7961 5.136C75.1587 5.808 75.34 6.592 75.34 7.488C75.34 8.384 75.1587 9.17333 74.7961 9.856C74.4441 10.528 73.9481 11.0507 73.3081 11.424C72.6787 11.7867 71.9587 11.968 71.148 11.968C70.2414 11.968 69.4627 11.744 68.812 11.296C68.172 10.848 67.724 10.272 67.468 9.568V11.84H66.748V0H67.468V5.44ZM74.604 7.488C74.604 6.69867 74.4547 6.016 74.1561 5.44C73.8574 4.864 73.4361 4.42667 72.8921 4.128C72.3587 3.81867 71.74 3.664 71.036 3.664C70.364 3.664 69.7561 3.824 69.2121 4.144C68.6681 4.45333 68.2414 4.90133 67.9321 5.488C67.6227 6.064 67.468 6.73067 67.468 7.488C67.468 8.256 67.6227 8.93333 67.9321 9.52C68.2414 10.096 68.6681 10.544 69.2121 10.864C69.7561 11.1733 70.364 11.328 71.036 11.328C71.74 11.328 72.3587 11.1733 72.8921 10.864C73.4361 10.5547 73.8574 10.112 74.1561 9.536C74.4547 8.96 74.604 8.27733 74.604 7.488Z" fill="#E9E9E9"/>
<path d="M51.8184 7.488C51.8184 6.592 51.9944 5.808 52.3464 5.136C52.709 4.464 53.205 3.94667 53.8344 3.584C54.4744 3.22133 55.1997 3.04 56.0104 3.04C56.8957 3.04 57.6637 3.264 58.3144 3.712C58.965 4.14933 59.4237 4.72 59.6904 5.424V0H60.4104V11.84H59.6904V9.536C59.4344 10.2507 58.9864 10.8373 58.3464 11.296C57.7064 11.744 56.9277 11.968 56.0104 11.968C55.1997 11.968 54.4744 11.7867 53.8344 11.424C53.205 11.0507 52.709 10.528 52.3464 9.856C51.9944 9.17333 51.8184 8.384 51.8184 7.488ZM59.6904 7.488C59.6904 6.73067 59.5304 6.064 59.2104 5.488C58.901 4.90133 58.4744 4.45333 57.9304 4.144C57.3864 3.824 56.7784 3.664 56.1064 3.664C55.4024 3.664 54.7837 3.81867 54.2504 4.128C53.717 4.42667 53.301 4.864 53.0024 5.44C52.7037 6.016 52.5544 6.69867 52.5544 7.488C52.5544 8.27733 52.7037 8.96 53.0024 9.536C53.301 10.112 53.717 10.5547 54.2504 10.864C54.7944 11.1733 55.413 11.328 56.1064 11.328C56.7784 11.328 57.3864 11.1733 57.9304 10.864C58.485 10.544 58.917 10.096 59.2264 9.52C59.5357 8.93333 59.6904 8.256 59.6904 7.488Z" fill="#E9E9E9"/>
<path d="M50.4908 6.912C50.4908 7.296 50.4801 7.584 50.4588 7.776H42.9547C42.9761 8.55467 43.1468 9.21067 43.4668 9.744C43.7868 10.2773 44.2081 10.6773 44.7308 10.944C45.2534 11.2107 45.8241 11.344 46.4428 11.344C47.2961 11.344 48.0108 11.136 48.5868 10.72C49.1628 10.2933 49.5254 9.71733 49.6748 8.992H50.4267C50.2561 9.87733 49.8188 10.5973 49.1148 11.152C48.4108 11.696 47.5201 11.968 46.4428 11.968C45.6321 11.968 44.9068 11.7867 44.2668 11.424C43.6268 11.0613 43.1254 10.544 42.7628 9.872C42.4001 9.18933 42.2188 8.39467 42.2188 7.488C42.2188 6.58133 42.3947 5.792 42.7467 5.12C43.1094 4.448 43.6108 3.936 44.2508 3.584C44.8908 3.22133 45.6214 3.04 46.4428 3.04C47.2748 3.04 47.9948 3.22133 48.6028 3.584C49.2214 3.936 49.6907 4.41067 50.0107 5.008C50.3307 5.59467 50.4908 6.22933 50.4908 6.912ZM49.7708 7.184C49.8028 6.416 49.6641 5.76533 49.3548 5.232C49.0561 4.69867 48.6454 4.304 48.1228 4.048C47.6001 3.78133 47.0347 3.648 46.4267 3.648C45.8187 3.648 45.2534 3.78133 44.7308 4.048C44.2188 4.304 43.7974 4.69867 43.4668 5.232C43.1468 5.76533 42.9761 6.416 42.9547 7.184H49.7708Z" fill="#E9E9E9"/>
<path d="M38.5916 3.776V9.52C38.5916 10.16 38.7089 10.6027 38.9436 10.848C39.1782 11.0827 39.5942 11.2 40.1916 11.2H41.1676V11.84H40.0796C39.3222 11.84 38.7622 11.664 38.3996 11.312C38.0476 10.9493 37.8716 10.352 37.8716 9.52V3.776H36.5596V3.152H37.8716V0.944H38.5916V3.152H41.1676V3.776H38.5916Z" fill="#E9E9E9"/>
<path d="M26.7061 7.488C26.7061 6.592 26.8821 5.808 27.2341 5.136C27.5967 4.464 28.0927 3.94667 28.7221 3.584C29.3621 3.22133 30.0874 3.04 30.8981 3.04C31.8154 3.04 32.5941 3.264 33.2341 3.712C33.8741 4.16 34.3221 4.73067 34.5781 5.424V3.152H35.2981V11.84H34.5781V9.552C34.3221 10.256 33.8687 10.8373 33.2181 11.296C32.5781 11.744 31.8047 11.968 30.8981 11.968C30.0874 11.968 29.3621 11.7867 28.7221 11.424C28.0927 11.0507 27.5967 10.528 27.2341 9.856C26.8821 9.17333 26.7061 8.384 26.7061 7.488ZM34.5781 7.488C34.5781 6.73067 34.4181 6.064 34.0981 5.488C33.7887 4.90133 33.3621 4.45333 32.8181 4.144C32.2741 3.824 31.6661 3.664 30.9941 3.664C30.2901 3.664 29.6714 3.81867 29.1381 4.128C28.6047 4.42667 28.1887 4.864 27.8901 5.44C27.5914 6.016 27.4421 6.69867 27.4421 7.488C27.4421 8.27733 27.5914 8.96 27.8901 9.536C28.1887 10.112 28.6047 10.5547 29.1381 10.864C29.6821 11.1733 30.3007 11.328 30.9941 11.328C31.6661 11.328 32.2741 11.1733 32.8181 10.864C33.3727 10.544 33.8047 10.096 34.1141 9.52C34.4234 8.93333 34.5781 8.256 34.5781 7.488Z" fill="#E9E9E9"/>
<path d="M25.3784 6.912C25.3784 7.296 25.3678 7.584 25.3464 7.776H17.8424C17.8638 8.55467 18.0344 9.21067 18.3544 9.744C18.6744 10.2773 19.0958 10.6773 19.6184 10.944C20.1411 11.2107 20.7118 11.344 21.3304 11.344C22.1838 11.344 22.8984 11.136 23.4744 10.72C24.0504 10.2933 24.4131 9.71733 24.5624 8.992H25.3144C25.1438 9.87733 24.7064 10.5973 24.0024 11.152C23.2984 11.696 22.4078 11.968 21.3304 11.968C20.5198 11.968 19.7944 11.7867 19.1544 11.424C18.5144 11.0613 18.0131 10.544 17.6504 9.872C17.2878 9.18933 17.1064 8.39467 17.1064 7.488C17.1064 6.58133 17.2824 5.792 17.6344 5.12C17.9971 4.448 18.4984 3.936 19.1384 3.584C19.7784 3.22133 20.5091 3.04 21.3304 3.04C22.1624 3.04 22.8824 3.22133 23.4904 3.584C24.1091 3.936 24.5784 4.41067 24.8984 5.008C25.2184 5.59467 25.3784 6.22933 25.3784 6.912ZM24.6584 7.184C24.6904 6.416 24.5518 5.76533 24.2424 5.232C23.9438 4.69867 23.5331 4.304 23.0104 4.048C22.4878 3.78133 21.9224 3.648 21.3144 3.648C20.7064 3.648 20.1411 3.78133 19.6184 4.048C19.1064 4.304 18.6851 4.69867 18.3544 5.232C18.0344 5.76533 17.8638 6.416 17.8424 7.184H24.6584Z" fill="#E9E9E9"/>
<path d="M13.0804 4.944C13.2937 4.304 13.6724 3.81866 14.2164 3.488C14.7604 3.14666 15.4537 2.976 16.2964 2.976V3.728H16.0564C15.203 3.728 14.4937 3.97333 13.9284 4.464C13.363 4.944 13.0804 5.73333 13.0804 6.832V11.84H12.3604V3.152H13.0804V4.944Z" fill="#E9E9E9"/>
<path d="M0 6.24C0 5.13067 0.229333 4.144 0.688 3.28C1.15733 2.40534 1.79733 1.72267 2.608 1.232C3.42933 0.741336 4.34667 0.496002 5.36 0.496002C6.64 0.496002 7.71733 0.794669 8.592 1.392C9.46667 1.98934 10.1067 2.82667 10.512 3.904H9.68C9.36 3.05067 8.82667 2.37867 8.08 1.888C7.344 1.38667 6.43733 1.136 5.36 1.136C4.496 1.136 3.712 1.344 3.008 1.76C2.304 2.16534 1.74933 2.75734 1.344 3.536C0.938667 4.304 0.736 5.20534 0.736 6.24C0.736 7.264 0.938667 8.16 1.344 8.928C1.74933 9.68534 2.304 10.272 3.008 10.688C3.712 11.104 4.496 11.312 5.36 11.312C6.43733 11.312 7.344 11.0667 8.08 10.576C8.82667 10.0747 9.36 9.39734 9.68 8.544H10.512C10.1067 9.62134 9.46667 10.4587 8.592 11.056C7.71733 11.6533 6.64 11.952 5.36 11.952C4.34667 11.952 3.42933 11.712 2.608 11.232C1.79733 10.7413 1.15733 10.064 0.688 9.2C0.229333 8.32534 0 7.33867 0 6.24Z" fill="#E9E9E9"/>
</svg>
